<svg fill="#000000" xmlns="http://www.w3.org/2000/svg"  viewBox="0 0 50 50" width="100px" height="100px"><path d="M 31 4.90625 A 1.0001 1.0001 0 0 0 30 5.90625 L 30 15.90625 L 18.5 15.90625 C 10.503585 15.90625 4 22.409835 4 30.40625 C 4 38.402665 10.503585 44.90625 18.5 44.90625 L 44 44.90625 A 1.0001 1.0001 0 0 0 45 43.90625 L 45 5.90625 A 1.0001 1.0001 0 0 0 44 4.90625 L 31 4.90625 z M 32 6.90625 L 43 6.90625 L 43 42.90625 L 18.5 42.90625 C 11.584415 42.90625 6 37.321835 6 30.40625 C 6 23.490665 11.584415 17.90625 18.5 17.90625 L 31 17.90625 A 1.0001 1.0001 0 0 0 32 16.90625 L 32 6.90625 z M 24.5 23.90625 C 20.921732 23.90625 18 26.827982 18 30.40625 C 18 33.984518 20.921732 36.90625 24.5 36.90625 L 31 36.90625 A 1.0001 1.0001 0 0 0 32 35.90625 L 32 24.90625 A 1.0001 1.0001 0 0 0 31 23.90625 L 24.5 23.90625 z M 24.5 25.90625 L 30 25.90625 L 30 34.90625 L 24.5 34.90625 C 22.002268 34.90625 20 32.903982 20 30.40625 C 20 27.908518 22.002268 25.90625 24.5 25.90625 z"/></svg>